<?xml version="1.0" standalone="no"?>
<!DOCTYPE svg PUBLIC "-//W3C//DTD SVG 20010904//EN"
 "http://www.w3.org/TR/2001/REC-SVG-20010904/DTD/svg10.dtd">
<svg version="1.0" xmlns="http://www.w3.org/2000/svg"
 width="299.000000pt" height="168.000000pt" viewBox="0 0 299.000000 168.000000"
 preserveAspectRatio="xMidYMid meet">

<g transform="translate(0.000000,168.000000) scale(0.100000,-0.100000)"
fill="#000000" stroke="none">
<path d="M1450 1475 c-8 -9 -21 -13 -36 -9 -31 8 -54 -11 -54 -45 0 -15 -5
-32 -10 -37 -8 -8 -7 -25 1 -56 11 -39 15 -44 36 -40 12 2 23 10 23 18 0 8 28
21 68 33 105 31 119 33 126 22 18 -28 23 -6 9 37 -26 76 -77 114 -110 81 -8
-8 -13 -8 -17 0 -10 15 -21 14 -36 -4z"/>
<path d="M1575 1310 c3 -5 8 -10 11 -10 2 0 4 5 4 10 0 6 -5 10 -11 10 -5 0
-7 -4 -4 -10z"/>
<path d="M1650 1161 c-19 -5 -26 -14 -28 -39 -3 -32 -22 -46 -22 -17 0 22 -23
18 -38 -5 -7 -11 -22 -20 -33 -20 -12 0 -23 8 -26 20 -4 16 -14 20 -49 20 -45
0 -56 -10 -108 -92 l-17 -27 40 -23 41 -23 0 -101 c0 -56 4 -114 9 -130 5 -16
12 -46 16 -66 4 -29 11 -38 25 -38 11 0 20 4 20 9 0 5 10 11 21 14 19 5 21 11
15 41 l-7 36 44 0 c24 0 58 5 76 11 l31 11 0 106 0 107 35 23 c34 21 35 24 20
45 -9 14 -15 44 -15 84 0 66 -1 68 -50 54z"/>
<path d="M1826 1138 c-3 -19 -3 -49 0 -67 6 -27 10 -32 28 -27 12 3 27 6 34 6
8 0 12 18 12 55 0 37 -4 55 -12 55 -7 0 -23 3 -34 6 -18 5 -22 0 -28 -28z"/>
<path d="M1253 716 c-24 -11 -28 -31 -17 -84 5 -24 12 -31 35 -34 48 -7 54 2
39 71 -13 62 -18 67 -57 47z"/>
<path d="M1635 530 c-22 -4 -43 -6 -47 -3 -5 2 -8 -3 -8 -12 0 -13 7 -15 30
-11 17 3 44 9 60 12 17 3 30 10 30 15 0 10 -8 10 -65 -1z"/>
<path d="M1400 511 c0 -5 29 -11 65 -13 47 -2 65 0 65 10 0 8 -20 12 -65 12
-36 0 -65 -4 -65 -9z"/>
<path d="M1463 303 c9 -2 23 -2 30 0 6 3 -1 5 -18 5 -16 0 -22 -2 -12 -5z"/>
<path d="M1603 303 c9 -2 23 -2 30 0 6 3 -1 5 -18 5 -16 0 -22 -2 -12 -5z"/>
<path d="M1603 259 c-32 -12 -29 -33 10 -75 37 -40 67 -39 67 3 0 22 -3 24
-24 19 -31 -8 -54 17 -36 39 17 20 11 25 -17 14z"/>
<path d="M1460 245 c18 -22 -5 -47 -36 -39 -19 5 -24 2 -24 -14 0 -24 22 -44
41 -37 19 7 59 67 59 88 0 12 -8 17 -26 17 -22 0 -25 -2 -14 -15z"/>
<path d="M1443 225 c0 -8 4 -12 9 -9 5 3 6 10 3 15 -9 13 -12 11 -12 -6z"/>
</g>
</svg>
