<?xml version="1.0" standalone="no"?>
<!DOCTYPE svg PUBLIC "-//W3C//DTD SVG 20010904//EN"
 "http://www.w3.org/TR/2001/REC-SVG-20010904/DTD/svg10.dtd">
<svg version="1.0" xmlns="http://www.w3.org/2000/svg"
 width="225.000000pt" height="225.000000pt" viewBox="0 0 225.000000 225.000000"
 preserveAspectRatio="xMidYMid meet">
<metadata>
Created by potrace 1.16, written by Peter Selinger 2001-2019
</metadata>
<g transform="translate(0.000000,225.000000) scale(0.100000,-0.100000)"
fill="#000000" stroke="none">
<path d="M955 2191 c-22 -10 -55 -33 -73 -51 l-33 -32 -62 17 c-90 24 -325 18
-382 -10 -97 -48 -150 -133 -150 -242 0 -66 2 -74 30 -103 16 -17 46 -35 66
-42 l38 -11 3 -158 c3 -140 5 -161 24 -186 30 -42 101 -75 147 -70 36 5 37 4
37 -27 0 -29 -35 -85 -136 -214 -5 -8 -51 23 -97 67 -61 57 -103 138 -117 227
l-11 67 36 53 c49 75 49 129 0 177 -19 19 -35 44 -35 56 0 13 -13 36 -29 52
-23 23 -38 29 -71 29 -33 0 -48 -6 -71 -29 l-29 -29 0 -259 c0 -292 8 -342 67
-457 49 -94 154 -198 250 -249 90 -47 103 -65 103 -140 0 -52 -2 -58 -18 -52
-121 50 -250 6 -306 -106 -25 -52 -26 -58 -26 -241 l0 -188 490 0 490 0 0 38
c-1 117 -58 262 -140 354 -26 29 -52 63 -58 75 -19 36 -14 195 9 286 44 175
35 159 77 151 52 -9 137 -48 183 -85 97 -77 139 -183 139 -351 0 -109 0 -111
-36 -169 -45 -72 -43 -117 6 -161 16 -15 30 -35 30 -44 0 -79 113 -125 177
-70 l28 24 0 349 c0 342 0 349 -25 423 -48 148 -167 284 -306 350 -34 17 -114
42 -178 57 -115 26 -116 27 -116 55 0 23 15 44 70 97 76 73 112 139 131 232
10 50 14 57 44 68 129 46 204 199 161 329 -20 59 -73 117 -130 143 -54 24
-148 25 -201 0z m-427 -363 c3 -36 5 -38 38 -38 33 0 34 1 34 41 0 39 1 40 33
37 29 -3 32 -6 35 -40 3 -36 5 -38 38 -38 33 0 34 1 34 40 0 39 1 40 35 40
l35 0 0 -75 0 -75 29 0 c53 0 52 -48 -3 -99 -26 -24 -26 -25 -26 -185 l0 -161
-48 -125 -47 -125 -53 -3 c-40 -2 -54 1 -58 13 -4 9 10 55 30 103 24 58 36
104 36 134 0 47 9 58 51 58 14 0 19 7 19 29 0 17 -5 33 -11 36 -5 4 -52 -1
-104 -11 -87 -16 -95 -16 -119 -1 -14 9 -30 26 -36 37 -10 19 -8 20 36 20 80
0 142 44 159 113 7 26 5 27 -29 27 -20 0 -36 -5 -36 -10 0 -6 -11 -22 -25 -35
-18 -19 -35 -25 -70 -25 l-45 0 0 181 0 180 33 -3 c29 -3 32 -6 35 -40z m-360
-120 c7 -7 12 -27 12 -45 0 -26 6 -36 29 -47 45 -24 46 -43 5 -104 -36 -54
-36 -56 -32 -136 9 -141 69 -253 185 -339 l50 -38 -13 -37 c-7 -20 -13 -58
-14 -85 l0 -48 -32 17 c-49 25 -127 103 -170 168 -69 107 -80 159 -85 427 -6
246 -2 279 35 279 10 0 23 -5 30 -12z m759 -502 c2 -1 -6 -23 -16 -47 -11 -24
-23 -69 -26 -99 -3 -30 -20 -115 -38 -187 l-31 -133 -157 0 -157 0 -22 46
c-30 61 -24 136 14 194 l28 42 16 -23 c29 -42 45 -48 123 -49 69 0 77 2 101
28 14 15 43 76 64 135 39 108 39 108 68 103 16 -4 31 -8 33 -10z m221 -62 c91
-44 185 -134 229 -220 59 -111 63 -145 63 -491 0 -285 -1 -313 -17 -322 -30
-16 -53 5 -53 48 0 34 -5 42 -35 60 -19 11 -35 27 -35 36 0 8 16 40 36 69 l36
55 -4 143 c-3 118 -8 153 -27 200 -61 156 -187 257 -364 293 -26 5 -27 8 -21
43 3 20 16 59 27 85 20 48 21 49 56 42 20 -3 69 -22 109 -41z m-336 -562 c3
-97 9 -109 102 -219 44 -52 81 -132 95 -210 l8 -43 -278 0 -279 0 0 24 c0 13
-2 31 -5 38 -6 14 169 228 186 228 5 0 48 -18 96 -40 81 -38 89 -40 100 -24
29 40 17 49 -147 125 l-160 73 0 68 0 68 139 0 139 0 4 -88z m-329 -102 l88
-41 -57 -67 c-32 -37 -63 -73 -70 -81 -10 -11 -16 -7 -33 27 -26 52 -31 54
-61 32 l-25 -19 22 -43 c24 -51 47 -153 39 -174 -5 -12 -25 -14 -108 -12 -57
2 -102 6 -100 11 1 4 2 74 2 156 0 137 2 151 23 182 12 19 42 44 67 57 59 30
100 25 213 -28z"/>
<path d="M1653 1800 c-168 -361 -207 -440 -213 -433 -4 4 -31 70 -61 145 l-54
138 -62 0 -63 0 0 -35 c0 -34 1 -35 39 -35 l39 0 78 -195 c43 -107 80 -195 83
-195 3 0 58 112 121 250 63 137 117 249 120 250 3 0 24 -55 46 -122 l40 -123
222 -3 222 -2 0 35 0 35 -197 2 -196 3 -62 185 -62 185 -40 -85z"/>
<path d="M1982 1084 c-40 -81 -77 -143 -82 -138 -4 5 -25 55 -45 112 l-38 102
-119 0 -118 0 0 -35 0 -35 94 0 95 0 29 -77 c16 -43 45 -118 63 -166 l33 -89
100 201 101 201 57 0 58 0 0 35 0 35 -78 0 -77 0 -73 -146z"/>
</g>
</svg>
